<svg t="1744471513948" class="icon" viewBox="0 0 1024 1024" version="1.1" xmlns="http://www.w3.org/2000/svg" p-id="2632"
	width="200" height="200">
	<path
		d="M512 149.333333C311.701333 149.333333 149.333333 311.701333 149.333333 512s162.368 362.666667 362.666667 362.666667 362.666667-162.368 362.666667-362.666667S712.298667 149.333333 512 149.333333zM106.666667 512C106.666667 288.149333 288.149333 106.666667 512 106.666667s405.333333 181.482667 405.333333 405.333333-181.482667 405.333333-405.333333 405.333333S106.666667 735.850667 106.666667 512z"
		p-id="2633" fill="white"></path>
	<path
		d="M512 725.333333a21.333333 21.333333 0 0 0 21.333333-21.333333V426.666667a21.333333 21.333333 0 1 0-42.666666 0v277.333333a21.333333 21.333333 0 0 0 21.333333 21.333333z"
		p-id="2634" fill="white"></path>
	<path d="M554.666667 341.333333a42.666667 42.666667 0 1 0-85.333334 0 42.666667 42.666667 0 0 0 85.333334 0z"
		p-id="2635" fill="white"></path>
</svg>