<svg class="icon" viewBox="0 0 1024 1024" version="1.1" xmlns="http://www.w3.org/2000/svg" style="height: 16px; width: 16px;">
	<path d="M899.2 298.7H131c-13.8 0-25-11.2-25-25s11.2-25 25-25h768.1c13.8 0 25 11.2 25 25s-11.1 25-24.9 25z"></path>
	<path d="M681.7 291.6c-13.8 0-25-11.2-25-25v-48.2c0-20.9-17-37.9-37.9-37.9H411.4c-20.9 0-37.9 17-37.9 37.9v48.2c0 13.8-11.2 25-25 25s-25-11.2-25-25v-48.2c0-48.5 39.4-87.9 87.9-87.9h207.4c48.5 0 87.9 39.4 87.9 87.9v48.2c0 13.8-11.2 25-25 25zM719.7 918H310.5c-48.5 0-87.9-41.7-87.9-93V382.9c0-13.8 11.2-25 25-25s25 11.2 25 25v442.2c0 23.7 17 43 37.9 43h409.2c20.9 0 37.9-19.3 37.9-43V382.9c0-13.8 11.2-25 25-25s25 11.2 25 25v442.2c0 51.2-39.4 92.9-87.9 92.9z"></path><path d="M438.2 772.6c-16.6 0-30-13.4-30-30v-286c0-16.6 13.4-30 30-30s30 13.4 30 30v286c0 16.5-13.4 30-30 30zM599.4 772.6c-16.6 0-30-13.4-30-30v-286c0-16.6 13.4-30 30-30s30 13.4 30 30v286c0 16.5-13.4 30-30 30z"></path></svg>